<svg id="Group_9756" data-name="Group 9756" xmlns="http://www.w3.org/2000/svg" xmlns:xlink="http://www.w3.org/1999/xlink" width="190.296" height="53.59" viewBox="0 0 190.296 53.59">
  <defs>
    <clipPath id="clip-path">
      <rect id="Rectangle_2358" data-name="Rectangle 2358" width="190.296" height="53.59" fill="#444"/>
    </clipPath>
  </defs>
  <g id="Group_9729" data-name="Group 9729" clip-path="url(#clip-path)">
    <path id="Path_15352" data-name="Path 15352" d="M289.1,27.717a13.544,13.544,0,0,0-2.669-4.183,12.369,12.369,0,0,0-4.041-2.832,12.5,12.5,0,0,0-14.127,2.832,13.551,13.551,0,0,0-2.668,4.183,13.847,13.847,0,0,0,0,10.22,14,14,0,0,0,.982,1.955,2.38,2.38,0,1,1,3.008,3.436,12.669,12.669,0,0,0,2.693,1.624,12.336,12.336,0,0,0,5.043,1.032,12.509,12.509,0,0,0,5.068-1.032,12.3,12.3,0,0,0,4.041-2.828A13.731,13.731,0,0,0,289.1,27.717m-3.466,9.9a.909.909,0,0,1-.906.91h-1.586a.909.909,0,0,1-.906-.91V30.78a.356.356,0,0,0-.609-.252l-8.559,8.555a.912.912,0,0,1-1.284,0l-1.116-1.12a.9.9,0,0,1,0-1.284l8.555-8.559a.353.353,0,0,0-.252-.6h-6.839a.909.909,0,0,1-.907-.91V25.023a.909.909,0,0,1,.907-.91h12.6a.908.908,0,0,1,.906.91Z" transform="translate(-168.822 -12.552)" fill="#444"/>
    <path id="Path_15353" data-name="Path 15353" d="M130.852,22.927a10.24,10.24,0,0,0-3.391-2.358,10.613,10.613,0,0,0-4.234-.847,9.39,9.39,0,0,0-4.913,1.328A11.336,11.336,0,0,0,115.34,23.6l-.074-2.852c0-.638-.3-1.029-.891-1.029H112.69a.886.886,0,0,0-.921.978V44.8a1.535,1.535,0,0,0,.206.866,1.038,1.038,0,0,0,.926.369h1.336a.977.977,0,0,0,.875-.369,1.54,1.54,0,0,0,.206-.868V30.325a6.256,6.256,0,0,1,.636-2.773,7.758,7.758,0,0,1,1.679-2.278,7.559,7.559,0,0,1,10.491.072,7.47,7.47,0,0,1,1.6,2.325,7.006,7.006,0,0,1,.591,2.861V44.743a1.889,1.889,0,0,0,.167.9c.217.391.78.391.964.391h1.336c.341,0,1.133-.13,1.133-1.338V31.13a12.639,12.639,0,0,0-.817-4.582,11.021,11.021,0,0,0-2.247-3.621" transform="translate(-71.306 -12.582)" fill="#444"/>
    <path id="Path_15354" data-name="Path 15354" d="M8.789,39.422v1.336a.892.892,0,0,1-.562.934,3.022,3.022,0,0,1-.978.146H6.474a10.464,10.464,0,0,1-2.489-.292,5.952,5.952,0,0,1-.788-.27,4.9,4.9,0,0,1-1.321-.854A5.326,5.326,0,0,1,.482,38.181,10.953,10.953,0,0,1,0,34.641V14.381a1.144,1.144,0,0,1,1.284-1.233h1.08A1.122,1.122,0,0,1,3.6,14.381L3.555,33.918v.051c.051,1.716.285,2.855.745,3.4a3.041,3.041,0,0,0,2.139.963H7.4a2.985,2.985,0,0,1,.832.117c.255.08.555.314.555.971" transform="translate(0 -8.388)" fill="#444"/>
    <path id="Path_15355" data-name="Path 15355" d="M52.647,23.582a12.346,12.346,0,0,0-4.04-2.831,12.507,12.507,0,0,0-5.067-1.03,12.272,12.272,0,0,0-9.056,3.86,13.614,13.614,0,0,0,0,18.589,12.272,12.272,0,0,0,9.056,3.861A12.512,12.512,0,0,0,48.607,45a12.318,12.318,0,0,0,4.04-2.831,13.619,13.619,0,0,0,0-18.589m.229,9.295a10.206,10.206,0,0,1-.706,3.779,9.691,9.691,0,0,1-1.947,3.092,9.385,9.385,0,0,1-2.944,2.091,9.16,9.16,0,0,1-7.379,0,9.364,9.364,0,0,1-2.943-2.091,9.664,9.664,0,0,1-1.947-3.091,10.462,10.462,0,0,1,0-7.558,9.684,9.684,0,0,1,1.948-3.092A9.383,9.383,0,0,1,39.9,23.915a9.156,9.156,0,0,1,7.379,0,9.4,9.4,0,0,1,2.944,2.091A9.683,9.683,0,0,1,52.169,29.1a10.212,10.212,0,0,1,.707,3.779" transform="translate(-19.673 -12.582)" fill="#444"/>
    <path id="Path_15356" data-name="Path 15356" d="M207.781,13.148h-1.073a1.15,1.15,0,0,0-1.285,1.241v5.061c-.014-.022-.037-.037-.051-.059a12.268,12.268,0,0,0-4.037-2.832,12.475,12.475,0,0,0-5.066-1.029,12.266,12.266,0,0,0-9.059,3.861,13.606,13.606,0,0,0,0,18.585,12.541,12.541,0,0,0,18.161,0c.014-.022.037-.037.051-.058a13.466,13.466,0,0,0,2.621-4.124,13.221,13.221,0,0,0,.858-3.259,13.634,13.634,0,0,0,.12-1.739V14.389a1.13,1.13,0,0,0-1.241-1.241m-2.358,17.478a9.817,9.817,0,0,1-2.474,4.927,9.353,9.353,0,0,1-2.942,2.1,9.187,9.187,0,0,1-7.38,0,9.352,9.352,0,0,1-2.941-2.1,9.616,9.616,0,0,1-1.949-3.088,10.449,10.449,0,0,1,0-7.562,9.624,9.624,0,0,1,1.949-3.088,9.358,9.358,0,0,1,2.941-2.1,9.187,9.187,0,0,1,7.38,0,9.359,9.359,0,0,1,2.942,2.1A9.669,9.669,0,0,1,204.9,24.9a9.8,9.8,0,0,1,.526,1.839,10.423,10.423,0,0,1,0,3.883" transform="translate(-117.107 -8.388)" fill="#444"/>
    <path id="Path_15357" data-name="Path 15357" d="M364.519,22.927a10.241,10.241,0,0,0-3.391-2.358,10.613,10.613,0,0,0-4.234-.847,9.39,9.39,0,0,0-4.913,1.328,11.344,11.344,0,0,0-2.975,2.553l-.074-2.852c0-.638-.3-1.029-.891-1.029h-1.685a.886.886,0,0,0-.921.978V44.8a1.535,1.535,0,0,0,.206.866,1.038,1.038,0,0,0,.926.369H347.9a.977.977,0,0,0,.875-.369,1.54,1.54,0,0,0,.206-.868V30.325a6.255,6.255,0,0,1,.636-2.773,7.758,7.758,0,0,1,1.679-2.278,7.559,7.559,0,0,1,10.491.072,7.47,7.47,0,0,1,1.6,2.325,7.006,7.006,0,0,1,.591,2.861V44.743a1.888,1.888,0,0,0,.167.9c.217.391.78.391.964.391h1.336c.341,0,1.133-.13,1.133-1.338V31.13a12.638,12.638,0,0,0-.817-4.582,11.02,11.02,0,0,0-2.247-3.621" transform="translate(-220.379 -12.582)" fill="#444"/>
    <path id="Path_15358" data-name="Path 15358" d="M449.764,30.454c-.484-.129-1.008-.295-1.557-.495a6.089,6.089,0,0,1-1.462-.766,4.431,4.431,0,0,1-1.083-1.082,2.349,2.349,0,0,1-.4-1.387,3.355,3.355,0,0,1,1.272-2.757,5.068,5.068,0,0,1,3.3-1.063,5.505,5.505,0,0,1,2.886.761,6.6,6.6,0,0,1,2.066,1.987c.086.129.365.562.45.644a1,1,0,0,0,1.446.084l.907-.555a1.154,1.154,0,0,0,.592-.79,1.343,1.343,0,0,0-.184-.872,9.1,9.1,0,0,0-3.448-3.518,9.448,9.448,0,0,0-4.715-1.064,8.4,8.4,0,0,0-5.784,1.963,6.641,6.641,0,0,0-2.214,5.181,5.647,5.647,0,0,0,.638,2.684,7.318,7.318,0,0,0,1.653,2.073,9.875,9.875,0,0,0,2.361,1.5,15.666,15.666,0,0,0,2.773.976c.7.167,1.415.375,2.135.621a7.871,7.871,0,0,1,1.913.944,5.6,5.6,0,0,1,1.384,1.334,2.827,2.827,0,0,1,.521,1.684,3.026,3.026,0,0,1-.523,1.762,4.438,4.438,0,0,1-1.366,1.271,6.618,6.618,0,0,1-1.8.746,7.605,7.605,0,0,1-1.837.242,5.126,5.126,0,0,1-1.375-.215,8.11,8.11,0,0,1-1.529-.606,5.558,5.558,0,0,1-1.357-.968,8.342,8.342,0,0,1-1.143-1.55,1.156,1.156,0,0,0-1.565-.656l-.933.443a1.1,1.1,0,0,0-.677,1.581,9.065,9.065,0,0,0,3.723,4.048,9.447,9.447,0,0,0,4.857,1.3,11.156,11.156,0,0,0,3.454-.471,9.052,9.052,0,0,0,2.815-1.451,6.982,6.982,0,0,0,2-2.339,6.749,6.749,0,0,0,.738-3.185c0-3.827-3-6.532-8.927-8.04" transform="translate(-281.341 -12.492)" fill="#444"/>
    <path id="Path_15359" data-name="Path 15359" d="M504.1,33.918c0,1.737.234,2.9.693,3.453a3.061,3.061,0,0,0,2.146.963h.956a3.027,3.027,0,0,1,.84.117c.248.08.554.314.554.971v1.336a.9.9,0,0,1-.569.934,3.028,3.028,0,0,1-.978.146h-.773a10.5,10.5,0,0,1-2.489-.292,4.93,4.93,0,0,1-2.11-1.124,5.39,5.39,0,0,1-1.395-2.241,10.965,10.965,0,0,1-.481-3.54V14.382a1.153,1.153,0,0,1,1.291-1.234h1.022a1.153,1.153,0,0,1,1.292,1.234v1.146h4.154A1.2,1.2,0,0,1,509.6,16.82v.817a1.2,1.2,0,0,1-1.343,1.292H504.1Z" transform="translate(-319.305 -8.388)" fill="#444"/>
    <path id="Path_15360" data-name="Path 15360" d="M421.143,19.722h-1.028a1.148,1.148,0,0,0-1.286,1.235V44.8a1.148,1.148,0,0,0,1.286,1.235h1.028A1.148,1.148,0,0,0,422.43,44.8V20.957a1.148,1.148,0,0,0-1.287-1.235" transform="translate(-267.202 -12.582)" fill="#444"/>
    <path id="Path_15361" data-name="Path 15361" d="M421.988,2.38A2.38,2.38,0,1,1,419.608,0a2.38,2.38,0,0,1,2.38,2.38" transform="translate(-266.181 0)" fill="#444"/>
    <rect id="Rectangle_2357" data-name="Rectangle 2357" width="0.739" height="9.763" transform="translate(0 43.673)" fill="#444"/>
    <path id="Path_15362" data-name="Path 15362" d="M18.222,120.636V130.4h-.656l-5.76-8.4v8.4h-.74v-9.763h.642l5.774,8.4v-8.4Z" transform="translate(-7.06 -76.963)" fill="#444"/>
    <path id="Path_15363" data-name="Path 15363" d="M37.016,120.636h.809l3.222,8.8,3.235-8.8h.8l-3.64,9.763h-.781Z" transform="translate(-23.615 -76.963)" fill="#444"/>
    <path id="Path_15364" data-name="Path 15364" d="M71.126,129.7v.7H65.505v-9.764h5.551v.7H66.245v3.794h4.463v.7H66.245V129.7Z" transform="translate(-41.791 -76.962)" fill="#444"/>
    <path id="Path_15365" data-name="Path 15365" d="M86.75,127.982l.642-.377a2.771,2.771,0,0,0,2.929,1.967c1.632,0,2.455-.837,2.455-1.953,0-1.171-1.032-1.617-2.524-2.092-1.632-.53-3.1-.99-3.1-2.692a2.692,2.692,0,0,1,2.957-2.622,3.279,3.279,0,0,1,3.138,2.05l-.627.348a2.567,2.567,0,0,0-2.511-1.687,1.954,1.954,0,0,0-2.2,1.883c0,1.172.991,1.534,2.385,2,1.729.571,3.236,1.115,3.236,2.8,0,1.618-1.27,2.678-3.208,2.678a3.5,3.5,0,0,1-3.571-2.3" transform="translate(-55.344 -76.693)" fill="#444"/>
    <path id="Path_15366" data-name="Path 15366" d="M116.274,121.333h-3.069V130.4h-.753v-9.066h-3.069v-.7h6.89Z" transform="translate(-69.784 -76.963)" fill="#444"/>
    <path id="Path_15367" data-name="Path 15367" d="M143.811,130.4h-.739v-8.675l-3.612,6h-.126l-3.612-6V130.4h-.739v-9.763h.921l3.487,5.775,3.486-5.775h.935Z" transform="translate(-86.115 -76.962)" fill="#444"/>
    <path id="Path_15368" data-name="Path 15368" d="M174.029,129.7v.7h-5.621v-9.764h5.551v.7h-4.812v3.794h4.463v.7h-4.463V129.7Z" transform="translate(-107.44 -76.962)" fill="#444"/>
    <path id="Path_15369" data-name="Path 15369" d="M198.427,120.636V130.4h-.656l-5.76-8.4v8.4h-.74v-9.763h.642l5.774,8.4v-8.4Z" transform="translate(-122.026 -76.963)" fill="#444"/>
    <path id="Path_15370" data-name="Path 15370" d="M224.5,121.333h-3.069V130.4h-.753v-9.066h-3.069v-.7h6.89Z" transform="translate(-138.827 -76.963)" fill="#444"/>
    <path id="Path_15371" data-name="Path 15371" d="M240.817,127.982l.642-.377a2.771,2.771,0,0,0,2.929,1.967c1.632,0,2.455-.837,2.455-1.953,0-1.171-1.032-1.617-2.524-2.092-1.632-.53-3.1-.99-3.1-2.692a2.692,2.692,0,0,1,2.957-2.622,3.279,3.279,0,0,1,3.138,2.05l-.627.348a2.567,2.567,0,0,0-2.511-1.687,1.954,1.954,0,0,0-2.2,1.883c0,1.172.991,1.534,2.385,2,1.729.571,3.236,1.115,3.236,2.8,0,1.618-1.269,2.678-3.208,2.678a3.5,3.5,0,0,1-3.571-2.3" transform="translate(-153.635 -76.693)" fill="#444"/>
  </g>
</svg>
